<?xml version="1.0" encoding="iso-8859-1"?>
<!-- Uploaded to: SVG Repo, www.svgrepo.com, Generator: SVG Repo Mixer Tools -->
<!DOCTYPE svg PUBLIC "-//W3C//DTD SVG 1.1//EN" "http://www.w3.org/Graphics/SVG/1.1/DTD/svg11.dtd">
<svg fill="#000000" height="800px" width="800px" version="1.1" id="Capa_1" xmlns="http://www.w3.org/2000/svg" xmlns:xlink="http://www.w3.org/1999/xlink"
	 viewBox="0 0 452.703 452.703" xml:space="preserve">
<g>
	<path d="M418.694,270.698l-26.083-85.229c21.252-38.809,10.23-108.087-3.801-162.067c-2.94-11.311-11.85-19.968-23.253-22.594
		c-11.394-2.627-23.187,1.259-30.771,10.138c-28.574,33.444-58.882,84.383-68.328,100.677c-26.643-2.491-53.569-2.491-80.211,0
		c-9.446-16.294-39.753-67.233-68.328-100.677C110.333,2.068,98.541-1.816,87.147,0.808C75.744,3.434,66.834,12.091,63.894,23.402
		c-14.031,53.98-25.053,123.258-3.801,162.067l-26.083,85.229c-11.729,38.324,0.217,80.101,30.433,106.432l45.001,39.215
		c7.882,6.869,17.763,10.529,27.974,10.529c2.696,0,5.417-0.255,8.127-0.774l16.163-3.092c9.842,17.602,35.355,29.695,64.646,29.695
		c29.29,0,54.803-12.092,64.645-29.694l16.159,3.091c12.981,2.483,26.139-1.072,36.102-9.755l45.001-39.215
		C418.477,350.799,430.422,309.022,418.694,270.698z M310.876,122.477l16.953-73.212c6.804-9.475,13.809-18.629,20.642-26.626
		c3.261-3.816,8.136-5.419,13.046-4.29c4.916,1.132,8.607,4.714,9.872,9.582c18.886,72.663,20.222,125.82,4.023,151.358
		l-53.482-31.206C312.98,142.861,308.538,132.571,310.876,122.477z M81.315,27.93c1.265-4.868,4.956-8.45,9.872-9.582
		c1.036-0.238,2.07-0.355,3.088-0.355c3.807,0,7.386,1.633,9.958,4.645c6.833,7.997,13.838,17.152,20.642,26.626l16.953,73.212
		c2.338,10.094-2.104,20.384-11.054,25.606l-53.482,31.206C61.093,153.75,62.428,100.593,81.315,27.93z M51.221,275.965
		l23.235-75.921c1.719,0.099,3.476-0.29,5.05-1.208l60.339-35.207c15.802-9.22,23.646-27.39,19.519-45.213l-6.18-26.687
		c11.986,19.139,20.148,33.551,20.32,33.854c1.767,3.13,5.227,4.909,8.799,4.525c29.229-3.141,58.869-3.141,88.097,0
		c3.575,0.382,7.033-1.396,8.799-4.525c0.171-0.303,8.334-14.715,20.32-33.854l-6.18,26.687
		c-4.127,17.824,3.716,35.994,19.519,45.213l60.339,35.207c1.416,0.826,2.98,1.227,4.532,1.227c0.172,0,0.344-0.017,0.516-0.026
		l23.237,75.929c3.646,11.914,4.508,24.232,2.834,36.118l-8.475-16.748c-9.372-18.521-26.18-32.459-46.116-38.241l-43.554-12.63
		c-10.907-3.162-22.361-1.824-32.246,3.769s-16.93,14.72-19.835,25.7l-18.202,68.769h-19.073l-18.202-68.769
		c-2.906-10.98-9.95-20.107-19.835-25.7c-9.886-5.593-21.336-6.932-32.247-3.769l-43.553,12.63
		c-19.936,5.781-36.745,19.72-46.116,38.241l-8.475,16.748C46.713,300.197,47.575,287.879,51.221,275.965z M317.031,267.526
		c0.603,6.112-1.212,12.095-5.11,16.845c-3.898,4.75-9.411,7.698-15.523,8.301c-7.861,0.776-17.577-0.42-27.757-3.373l2.848-10.76
		c1.656-6.254,5.668-11.454,11.299-14.64c5.631-3.187,12.155-3.949,18.369-2.147l15.717,4.558
		C316.936,266.714,316.991,267.118,317.031,267.526z M227.464,369.043c-0.193,0.395-0.603,0.65-1.042,0.65h-0.14
		c-0.439,0-0.849-0.255-1.042-0.651c-1.7-3.473-4.342-6.336-7.524-8.34h17.274C231.806,362.707,229.164,365.57,227.464,369.043z
		 M226.351,399.88c2.384,3.119,5.201,5.876,8.348,8.201c-2.763,1.107-5.549,1.672-8.345,1.672c-2.798,0-5.585-0.565-8.351-1.671
		C221.15,405.757,223.968,403,226.351,399.88z M135.672,267.527c0.04-0.408,0.096-0.813,0.157-1.217l15.716-4.558
		c6.215-1.801,12.738-1.04,18.369,2.147c5.631,3.186,9.644,8.385,11.299,14.64l2.848,10.76c-10.179,2.953-19.892,4.149-27.757,3.373
		c-6.112-0.603-11.625-3.55-15.523-8.301C136.884,279.621,135.069,273.639,135.672,267.527z M142.162,408.42
		c-7.51,1.438-15.126-0.62-20.894-5.646l-45-39.215c-8.652-7.54-15.479-16.621-20.303-26.584l16.958-33.513
		c7.127-14.084,19.909-24.684,35.069-29.08l9.607-2.786c0.373,8.82,3.568,17.246,9.268,24.192
		c6.947,8.467,16.775,13.722,27.672,14.796c2.254,0.222,4.514,0.323,6.763,0.323c9.889,0,19.541-1.959,27.366-4.205l10.086,38.105
		c-5.002,2.815-8.393,8.167-8.393,14.303c0,9.048,7.361,16.409,16.41,16.409c0.972,0,1.875,0.564,2.302,1.436
		c1.379,2.818,3.426,5.202,5.889,7.005c-3.031,7.113-9.463,12.342-17.116,13.806L142.162,408.42z M226.354,434.703
		c-17.01,0-35.981-5.616-45.283-15.399l16.287-3.116c8.927,7.581,18.868,11.565,28.996,11.565c10.127,0,20.063-3.984,28.982-11.567
		l16.3,3.118C262.333,429.088,243.363,434.703,226.354,434.703z M376.436,363.56l-45.001,39.215
		c-5.768,5.025-13.383,7.083-20.895,5.646l-55.683-10.652c-7.652-1.464-14.084-6.693-17.116-13.806
		c2.463-1.802,4.509-4.187,5.888-7.004c0.427-0.873,1.331-1.437,2.303-1.437c9.048,0,16.41-7.361,16.41-16.409
		c0-6.136-3.391-11.489-8.393-14.303l10.086-38.105c7.825,2.246,17.476,4.205,27.366,4.205c2.248,0,4.51-0.101,6.763-0.323
		c10.897-1.074,20.725-6.329,27.672-14.796c5.7-6.946,8.895-15.372,9.268-24.192l9.607,2.786
		c15.16,4.396,27.942,14.995,35.069,29.08l16.958,33.513C391.914,346.938,385.088,356.02,376.436,363.56z"/>
	<path d="M198.02,233.143c1.771,2.333,4.458,3.561,7.177,3.561c1.895,0,3.806-0.597,5.433-1.83c3.96-3.004,4.735-8.65,1.731-12.61
		l-20.028-26.401l1.848-39.742c0.231-4.965-3.607-9.177-8.572-9.408c-4.961-0.242-9.178,3.607-9.408,8.572l-2,43
		c-0.098,2.105,0.546,4.178,1.82,5.857L198.02,233.143z"/>
	<path d="M242.073,234.874c1.626,1.234,3.537,1.83,5.433,1.83c2.719,0,5.407-1.228,7.177-3.561l22-29
		c1.274-1.679,1.918-3.752,1.82-5.857l-2-43c-0.231-4.965-4.437-8.814-9.408-8.572c-4.965,0.231-8.803,4.443-8.572,9.408
		l1.848,39.742l-20.028,26.401C237.338,226.224,238.113,231.869,242.073,234.874z"/>
</g>
</svg>
